<svg width="20" height="24" viewBox="0 0 20 24" fill="none" xmlns="http://www.w3.org/2000/svg">
<g clip-path="url(#clip0_888_36655)">
<path d="M13.3334 10.6667V14.8333C13.3334 15.4964 13.5968 16.1323 14.0657 16.6011C14.5345 17.0699 15.1704 17.3333 15.8334 17.3333C16.4965 17.3333 17.1324 17.0699 17.6012 16.6011C18.07 16.1323 18.3334 15.4964 18.3334 14.8333V14C18.3333 12.1192 17.6969 10.2937 16.5278 8.82043C15.3587 7.34715 13.7256 6.31268 11.894 5.88524C10.0624 5.4578 8.14003 5.66253 6.43955 6.46613C4.73906 7.26974 3.36042 8.62495 2.5278 10.3114C1.69519 11.9979 1.45756 13.9164 1.85356 15.7551C2.24956 17.5937 3.2559 19.2444 4.70895 20.4385C6.16199 21.6327 7.97628 22.3003 9.85681 22.3326C11.7373 22.365 13.5735 21.7602 15.0668 20.6167M13.3334 14C13.3334 15.8409 11.841 17.3333 10.0001 17.3333C8.15914 17.3333 6.66676 15.8409 6.66676 14C6.66676 12.159 8.15914 10.6667 10.0001 10.6667C11.841 10.6667 13.3334 12.159 13.3334 14Z" stroke="#B6B6B6" stroke-width="1.5" stroke-linecap="round" stroke-linejoin="round"/>
</g>
<defs>
<clipPath id="clip0_888_36655">
<rect width="20" height="20" fill="white" transform="translate(0 4)"/>
</clipPath>
</defs>
</svg>
