<svg width="23" height="24" viewBox="0 0 23 24" fill="none" xmlns="http://www.w3.org/2000/svg">
<path d="M9.58333 8.16881C9.75219 7.6888 10.0855 7.28405 10.5242 7.02623C10.9628 6.76841 11.4786 6.67416 11.9801 6.76018C12.4817 6.84621 12.9365 7.10695 13.2642 7.49622C13.5919 7.8855 13.7713 8.37819 13.7705 8.88702C13.7705 10.3235 11.6159 11.0417 11.6159 11.0417M11.6437 13.9167H11.6532M6.70833 17.75V19.9882C6.70833 20.4988 6.70833 20.7542 6.81301 20.8853C6.90405 20.9993 7.04209 21.0657 7.18802 21.0655C7.35581 21.0654 7.55518 20.9059 7.95393 20.5869L10.24 18.758C10.707 18.3844 10.9405 18.1976 11.2005 18.0648C11.4312 17.9469 11.6767 17.8608 11.9305 17.8087C12.2165 17.75 12.5155 17.75 13.1136 17.75H15.525C17.1352 17.75 17.9402 17.75 18.5552 17.4366C19.0962 17.161 19.536 16.7212 19.8116 16.1802C20.125 15.5652 20.125 14.7602 20.125 13.15V7.975C20.125 6.36485 20.125 5.55977 19.8116 4.94478C19.536 4.40381 19.0962 3.96399 18.5552 3.68836C17.9402 3.375 17.1352 3.375 15.525 3.375H7.475C5.86485 3.375 5.05977 3.375 4.44478 3.68836C3.90381 3.96399 3.46399 4.40381 3.18836 4.94478C2.875 5.55977 2.875 6.36485 2.875 7.975V13.9167C2.875 14.8079 2.875 15.2535 2.97296 15.6191C3.23881 16.6112 4.01376 17.3862 5.0059 17.652C5.3715 17.75 5.81711 17.75 6.70833 17.75Z" stroke="#868B90" stroke-width="2" stroke-linecap="round" stroke-linejoin="round"/>
</svg>
