<svg width="14" height="14" viewBox="0 0 14 14" fill="none" xmlns="http://www.w3.org/2000/svg">
<path d="M9.3335 4.66602H9.32766M11.3386 1.71275L12.2868 2.66095C12.4885 2.86273 12.5894 2.96361 12.6616 3.08135C12.7255 3.18573 12.7727 3.29954 12.8013 3.41858C12.8335 3.55285 12.8335 3.69552 12.8335 3.98088L12.8335 5.64282C12.8335 5.92817 12.8335 6.07085 12.8013 6.20512C12.7727 6.32416 12.7255 6.43796 12.6616 6.54235C12.5894 6.66008 12.4885 6.76097 12.2868 6.96275L7.8134 11.4361C7.12037 12.1291 6.77385 12.4757 6.37428 12.6055C6.0228 12.7197 5.64419 12.7197 5.29272 12.6055C4.89314 12.4757 4.54663 12.1291 3.8536 11.4361L2.5634 10.1459C1.87037 9.45288 1.52385 9.10637 1.39402 8.70679C1.27982 8.35532 1.27982 7.97671 1.39402 7.62523C1.52385 7.22566 1.87037 6.87914 2.5634 6.18611L7.03676 1.71275C7.23854 1.51097 7.33943 1.41008 7.45716 1.33794C7.56155 1.27397 7.67535 1.22683 7.79439 1.19825C7.92866 1.16602 8.07134 1.16602 8.3567 1.16602L10.0186 1.16602C10.304 1.16602 10.4467 1.16602 10.5809 1.19825C10.7 1.22683 10.8138 1.27397 10.9182 1.33794C11.0359 1.41008 11.1368 1.51097 11.3386 1.71275ZM9.04183 4.66602C9.04183 4.8271 9.17241 4.95768 9.3335 4.95768C9.49458 4.95768 9.62516 4.8271 9.62516 4.66602C9.62516 4.50493 9.49458 4.37435 9.3335 4.37435C9.17241 4.37435 9.04183 4.50493 9.04183 4.66602Z" stroke="black" stroke-width="1.5" stroke-linecap="round" stroke-linejoin="round"/>
</svg>
